PathFileType	4	(X/Y/Z)	E:\Qualisys_Data\Carbon_Farble_Plate\Data\Amateur_Runner\S14\T3\S14T3V11_c3d.trc
DataRate	CameraRate	NumFrames	NumMarkers	Units	OrigDataRate	OrigDataStartFrame	OrigNumFrames
200.000000	200.000000	4	39	mm	200.000000	234	313
Frame#	Time	LSHO			RSHO			LICST			RICST			LASIS			LHEEL			RASIS			LTROC			RTROC			SACR			LTH1			LSK4			LTH2			LTH3			RHM5			LSK2			LTH4			RTH1			LTOE			RTH2			RTH3			RTH4			LLEP			RLEP			LSK1			LSK3			RSK1			LHM5			RSK2			LFT1			RSK3			RSK4			LLME			RLME			RTOE			RHEEL			RFT1			RFT2			LFT2			
		X1	Y1	Z1	X2	Y2	Z2	X3	Y3	Z3	X4	Y4	Z4	X5	Y5	Z5	X6	Y6	Z6	X7	Y7	Z7	X8	Y8	Z8	X9	Y9	Z9	X10	Y10	Z10	X11	Y11	Z11	X12	Y12	Z12	X13	Y13	Z13	X14	Y14	Z14	X15	Y15	Z15	X16	Y16	Z16	X17	Y17	Z17	X18	Y18	Z18	X19	Y19	Z19	X20	Y20	Z20	X21	Y21	Z21	X22	Y22	Z22	X23	Y23	Z23	X24	Y24	Z24	X25	Y25	Z25	X26	Y26	Z26	X27	Y27	Z27	X28	Y28	Z28	X29	Y29	Z29	X30	Y30	Z30	X31	Y31	Z31	X32	Y32	Z32	X33	Y33	Z33	X34	Y34	Z34	X35	Y35	Z35	X36	Y36	Z36	X37	Y37	Z37	X38	Y38	Z38	X39	Y39	Z39	

235	1.17	1335.581665039062	1416.622680664062	-569.3097534179688	1439.609375	1411.932373046875	-291.5815734863281	1345.236572265625	965.4557495117188	-546.56494140625	1399.228759765625	977.9877319335938	-275.8205871582031	1393.648071289062	917.280517578125	-526.2042846679688	1450.160400390625	64.34793090820312	-429.4688110351562	1419.633056640625	932.1411743164062	-294.8805541992188	1268.474975585938	838.1205444335938	-554.9341430664062	1268.491088867188	869.6107788085938	-218.6751098632812	1231.857299804688	966.7348022460938	-402.5417785644531	1412.80517578125	633.1149291992188	-560.57421875	1433.183349609375	263.0733337402344	-504.8775939941406	1348.53466796875	607.045654296875	-526.9234008789062	1463.668701171875	551.745849609375	-535.3488159179688	841.9600219726562	187.1229705810547	-239.300537109375	1422.392333984375	360.5103759765625	-522.4929809570312	1393.927856445312	521.83544921875	-511.8538513183594	1330.187866210938	628.1354370117188	-230.8499755859375	1707.868286132812	90.71878814697266	-477.1195373535156	1257.223510742188	651.436279296875	-220.7334899902344	1302.490844726562	532.6533203125	-246.4456176757812	1222.467041015625	557.5154418945312	-235.6211090087891	1452.172973632812	463.0249938964844	-526.2275390625	1217.919677734375	486.6576232910156	-238.5390930175781	1504.170776367188	370.0208129882812	-525.8749389648438	1513.865844726562	269.4107360839844	-511.2458190917969	1124.446411132812	405.0039672851562	-238.9548187255859	1634.230346679688	60.65599822998047	-529.4163818359375	1082.770629882812	478.9859619140625	-251.7600860595703	1466.929321289062	35.08573913574219	-404.7952270507812	1033.364013671875	358.0160827636719	-259.0020141601562	1001.16943359375	429.8370056152344	-268.986083984375	1498.321655273438	90.32041168212892	-489.9884948730469	865.6990966796875	323.5498046875	-293.3349304199219	883.5454711914062	111.3020095825195	-287.0012817382812	830.8612670898438	352.7922973632812	-362.9764709472656	811.1767578125	327.5259399414062	-389.3871459960938	804.6603393554688	353.9808959960938	-340.6438903808594	1454.326904296875	33.94406890869141	-456.9197387695312
236	1.175	1351.512939453125	1411.179443359375	-570.5333862304688	1454.301635742188	1407.406860351562	-291.5302124023438	1361.301025390625	961.3107299804688	-547.4248657226562	1414.640502929688	973.5576171875	-276.1423950195312	1409.287231445312	913.6494140625	-526.9585571289062	1453.49951171875	64.34031677246094	-429.62451171875	1435.145385742188	927.9562377929688	-295.0447692871094	1284.195434570312	833.8284912109375	-555.1860961914062	1284.429443359375	864.3760986328125	-219.4548950195312	1247.381713867188	961.9358520507812	-403.02587890625	1429.9736328125	630.1422729492188	-559.2711181640625	1444.703857421875	261.63818359375	-504.4185791015625	1365.350708007812	603.4229125976562	-527.8607177734375	1480.703979492188	548.205078125	-534.8330078125	858.68017578125	189.412353515625	-239.6510162353516	1437.927124023438	359.5492553710938	-522.9064331054688	1410.752075195312	518.2301025390625	-511.8870239257812	1348.64990234375	623.7789916992188	-229.8251495361328	1713.213623046875	78.21593475341797	-474.9795532226562	1275.796508789062	646.4400634765625	-219.45361328125	1322.401489257812	527.7550659179688	-244.6623229980469	1241.833374023438	552.0679321289062	-234.0888214111328	1468.830322265625	460.8278503417969	-527.3197021484375	1238.44287109375	481.4335021972656	-236.5810546875	1519.654663085938	365.7302551269531	-525.3030395507812	1525.69140625	264.7597351074219	-510.4104919433594	1143.986938476562	401.112060546875	-237.3272399902344	1637.631713867188	55.9027099609375	-530.0264282226562	1103.858520507812	475.5447387695312	-250.8959503173828	1468.286254882812	34.17343139648438	-404.9957580566406	1052.432250976562	355.523193359375	-258.2182312011719	1021.6015625	428.0994262695312	-269.2123718261719	1502.863403320312	87.57328796386719	-489.71875	884.3959350585938	325.022216796875	-295.0040588378906	900.0543212890625	112.763671875	-285.5954284667969	850.8397827148438	353.923828125	-364.77880859375	830.8738403320312	328.7944641113281	-391.2966613769531	825.67919921875	354.5668334960938	-347.0811767578125	1455.834350585938	33.86034393310547	-456.6517333984375
237	1.18	1367.44677734375	1406.051635742188	-571.4036865234375	1468.512817382812	1403.077758789062	-291.6523132324219	1376.858642578125	956.869873046875	-548.0120849609375	1430.224487304688	969.0511474609376	-276.3844909667969	1424.90087890625	910.107177734375	-527.4195556640625	1455.922607421875	64.46870422363281	-428.8200988769531	1450.697265625	923.7767333984376	-295.4908142089844	1300.253662109375	829.1228637695312	-555.3594970703125	1300.4404296875	859.1090698242188	-219.7445373535156	1262.618774414062	957.5996704101562	-403.4589538574219	1447.46484375	627.5422973632812	-558.9459228515625	1457.033569335938	261.1031494140625	-503.6507263183594	1382.51904296875	600.3834228515625	-528.4987182617188	1498.470092773438	545.5316162109375	-535.023681640625	876.1091918945312	191.7324829101562	-239.5091247558594	1453.161499023438	359.0263366699219	-523.572509765625	1428.4306640625	515.5784301757812	-512.8892211914062	1367.370483398438	619.626220703125	-228.9222106933594	1714.566772460938	77.25603485107422	-474.4296264648438	1294.043090820312	641.220947265625	-218.7937622070312	1342.480834960938	522.8685913085938	-243.1450042724609	1261.659545898438	545.9591064453125	-232.8066558837891	1487.40234375	458.1634216308594	-528.008056640625	1259.327514648438	476.1126708984375	-234.7996673583984	1535.723388671875	362.4989929199219	-525.919189453125	1537.3701171875	261.0954895019531	-510.1203002929688	1164.254272460938	397.1439819335938	-236.3005981445312	1640.324951171875	56.75796890258789	-531.682861328125	1125.278076171875	472.0321044921875	-250.010009765625	1469.9306640625	33.75396347045898	-404.7104797363281	1072.031860351562	353.3283996582031	-257.0175476074219	1042.33837890625	425.7820129394531	-268.96533203125	1506.800903320312	86.42012023925781	-488.8047180175781	903.5596313476562	327.2222900390625	-294.6231079101562	917.1024780273438	114.1178970336914	-284.2847900390625	871.0015258789062	355.0536499023438	-366.718017578125	850.6761474609375	329.4985656738281	-393.089599609375	845.5408325195312	355.8824157714844	-346.8607788085938	1457.304931640625	34.31612777709961	-456.3746948242188
238	1.185	1383.64892578125	1400.798706054688	-572.5642700195312	1483.362915039062	1398.677368164062	-291.6041259765625	1392.661743164062	952.8718872070312	-548.3032836914062	1445.503051757812	964.5078125	-276.4323425292969	1440.087890625	906.6878051757812	-527.816650390625	1458.018310546875	65.56856536865234	-426.7837829589844	1466.42626953125	919.420166015625	-295.6173400878906	1315.642211914062	824.6692504882812	-555.6387939453125	1316.209594726562	853.7115478515625	-220.6314392089844	1277.132690429688	952.8604736328124	-403.8796691894531	1465.494506835938	626.0352783203125	-559.4658203125	1468.200317382812	262.1003723144531	-504.4341125488281	1400.645629882812	597.9656372070312	-528.7825927734375	1516.858276367188	544.1491088867188	-535.49951171875	894.7982788085938	193.6246948242188	-239.3072662353516	1468.768920898438	359.8357849121094	-524.7389526367188	1447.241088867188	513.17236328125	-514.1415405273438	1386.467529296875	615.4764404296875	-228.0731048583984	1711.698486328125	74.951171875	-476.3373718261719	1312.802001953125	635.9591674804688	-217.5684356689453	1363.123291015625	518.186279296875	-241.5482330322266	1281.511840820312	540.062744140625	-231.6537017822266	1506.308471679688	456.8103942871094	-528.99267578125	1280.3896484375	470.6007995605469	-232.9391784667969	1551.477294921875	358.8140869140625	-525.8323974609375	1548.344604492188	258.3396301269531	-509.9129333496094	1184.783569335938	392.5328979492188	-235.5213012695312	1639.12451171875	56.6890869140625	-531.8418579101562	1147.181274414062	468.5679626464844	-248.8356781005859	1471.293212890625	33.58712387084961	-403.9508056640625	1092.223022460938	350.6587829589844	-256.8935546875	1063.773681640625	423.5840759277344	-268.7380676269531	1509.849365234375	86.28462219238281	-487.4223937988281	923.4722290039062	328.0528869628906	-295.9985046386719	934.8446044921876	115.0332183837891	-283.32275390625	891.8101806640625	355.62158203125	-368.2916870117188	871.387451171875	330.403564453125	-394.6296081542969	865.5148315429688	358.4619140625	-348.240966796875	1457.947265625	36.1032829284668	-455.4595336914062
